<?xml version="1.0" standalone="no"?>
<!DOCTYPE svg PUBLIC "-//W3C//DTD SVG 20010904//EN"
 "http://www.w3.org/TR/2001/REC-SVG-20010904/DTD/svg10.dtd">
<svg version="1.0" xmlns="http://www.w3.org/2000/svg"
 width="410.000000pt" height="410.000000pt" viewBox="0 0 410.000000 410.000000"
 preserveAspectRatio="xMidYMid meet">
<metadata>
Created by potrace 1.11, written by Peter Selinger 2001-2013
</metadata>
<g transform="translate(0.000000,410.000000) scale(0.100000,-0.100000)"
fill="#000000" stroke="none">
<path d="M2858 4083 c-10 -2 -18 -8 -19 -11 -1 -12 -7 -169 -13 -396 -5 -202
-8 -221 -26 -241 -11 -12 -17 -25 -13 -30 5 -4 3 -5 -3 -2 -8 5 -44 -24 -44
-36 0 -2 -30 -35 -67 -74 -38 -39 -106 -112 -153 -164 -100 -109 -179 -195
-235 -254 -22 -24 -78 -84 -125 -135 -47 -51 -101 -109 -121 -130 l-36 -38 14
-42 c8 -23 13 -48 11 -57 -3 -18 -36 -26 -53 -14 -19 14 -58 7 -61 -11 -1 -10
1 -18 5 -18 4 0 8 -6 9 -12 0 -7 3 -22 5 -33 6 -28 -12 -49 -29 -34 -8 6 -14
9 -14 6 0 -3 -13 -2 -29 3 -36 10 -44 -4 -31 -51 6 -19 6 -38 0 -49 -8 -16
-15 -17 -46 -8 -57 15 -66 7 -49 -43 23 -64 7 -74 -82 -54 -26 6 -29 -7 -12
-51 12 -33 4 -78 -13 -68 -18 11 -88 22 -93 14 -2 -3 2 -27 10 -52 17 -57 7
-70 -42 -56 -47 13 -67 4 -59 -25 27 -89 26 -89 -98 15 -22 18 -49 39 -60 47
-12 8 -24 20 -28 27 -5 7 -23 10 -50 7 -42 -5 -68 -22 -68 -43 0 -6 -4 -8 -10
-5 -5 3 -10 2 -10 -4 0 -5 -16 -24 -35 -42 -18 -18 -32 -36 -29 -41 3 -5 2 -7
-3 -6 -10 3 -12 0 -143 -143 -47 -51 -106 -116 -132 -144 -25 -27 -63 -68 -83
-90 -21 -22 -58 -62 -84 -90 -25 -27 -45 -53 -44 -57 2 -4 -3 -8 -10 -8 -6 0
-21 -13 -32 -29 -10 -16 -22 -28 -26 -25 -4 2 -10 -5 -14 -16 -3 -11 -11 -20
-16 -20 -5 0 8 -17 29 -39 20 -21 48 -53 62 -71 14 -19 35 -44 48 -56 12 -13
22 -28 22 -34 0 -5 5 -10 11 -10 5 0 7 -5 4 -10 -4 -6 -11 -8 -16 -4 -6 3 -21
3 -34 0 l-23 -6 18 -50 c19 -51 17 -60 -10 -55 -8 2 -28 6 -43 8 -54 11 -63
-6 -38 -66 6 -16 9 -32 6 -36 -5 -9 -36 -8 -51 1 -5 4 -19 5 -30 3 -10 -2 -23
-4 -28 -4 -4 -1 -5 -16 -2 -34 3 -17 7 -38 8 -44 1 -7 5 -13 10 -13 4 0 8 -4
8 -9 0 -9 -35 -8 -79 3 -13 3 -29 0 -35 -7 -14 -13 -17 -47 -5 -47 3 0 9 -12
12 -26 5 -28 -12 -41 -40 -29 -29 13 -53 12 -63 0 -11 -13 -9 -50 3 -61 4 -4
7 -16 7 -26 0 -13 -7 -17 -25 -16 -14 1 -25 6 -25 10 0 10 -39 1 -55 -12 -31
-26 30 -146 118 -233 15 -15 25 -27 21 -27 -4 0 6 -10 22 -22 16 -13 38 -32
50 -43 41 -39 74 -65 74 -57 0 4 4 2 8 -3 7 -9 50 -39 115 -79 26 -16 99 -28
162 -27 36 1 67 36 62 72 -3 23 1 26 26 27 43 1 69 30 65 69 -4 33 0 37 34 34
24 -3 60 18 53 30 -4 5 -2 9 3 9 6 0 8 16 5 35 -5 35 -4 35 26 30 44 -8 75 25
68 71 -6 34 -5 34 33 34 29 0 43 6 54 22 8 12 13 25 10 30 -3 4 -7 19 -10 32
-4 23 -2 24 48 20 28 -2 54 -7 57 -12 3 -4 22 -19 41 -32 19 -14 40 -28 45
-33 6 -4 25 -19 44 -32 l34 -25 39 42 c21 23 38 42 38 44 0 1 28 32 63 67 34
36 107 114 162 174 55 59 127 137 160 172 33 36 79 85 102 110 122 131 143
155 144 165 0 6 2 20 4 32 3 15 -13 39 -59 85 -39 40 -65 76 -69 94 -3 17 -8
44 -12 62 -6 30 -4 32 17 27 73 -16 103 -11 93 15 -4 9 -8 24 -10 34 -2 10 -7
27 -10 38 -6 17 -2 18 45 13 64 -7 87 0 70 21 -6 8 -9 19 -5 25 3 5 2 10 -3
10 -5 0 -9 12 -8 28 1 28 20 36 43 19 17 -13 68 -4 65 11 -1 7 -3 20 -5 30 -1
9 -6 23 -11 30 -12 20 14 45 38 37 12 -3 33 -8 49 -10 31 -5 33 4 13 61 -17
51 -5 64 46 51 59 -15 69 -7 52 42 -16 46 -9 74 15 67 35 -10 91 -15 91 -8 0
4 -4 23 -10 41 -13 45 -6 50 26 20 18 -16 28 -20 31 -11 3 6 11 12 18 12 7 0
15 4 17 9 3 9 134 151 260 284 32 33 55 64 51 70 -3 5 -2 7 4 4 5 -3 36 24 69
60 32 37 87 95 122 130 34 36 62 66 62 69 0 3 26 31 58 64 31 32 80 83 107
113 54 59 45 56 205 72 30 3 73 8 95 10 22 3 63 7 90 10 28 3 66 8 85 10 19 2
60 7 90 10 95 10 110 15 110 36 0 54 -107 208 -252 363 -27 28 -48 54 -48 58
0 4 -8 8 -17 8 -9 0 -14 3 -10 6 9 10 -218 227 -386 367 -31 27 -57 46 -57 44
0 -3 -15 9 -34 26 -18 18 -57 48 -85 67 -28 19 -58 40 -65 47 -8 7 -16 9 -20
6 -3 -4 -6 -2 -6 4 0 10 -159 95 -170 92 -3 -1 -13 -3 -22 -6z"/>
</g>
</svg>
